<svg width="80" height="76" viewBox="0 0 80 76" fill="none" xmlns="http://www.w3.org/2000/svg">
<path d="M60.6956 0H37.971C33.9369 0 30.6667 3.31836 30.6667 7.41176V18.0627C30.6667 22.1561 33.9369 25.4745 37.971 25.4745H60.6956C64.7297 25.4745 68 22.1561 68 18.0627V7.41176C68 3.31836 64.7297 0 60.6956 0Z" fill="#3A278F"/>
<path d="M63.2797 33.8196L49.5479 25.4745H61.3292L63.2797 33.8196Z" fill="#3A278F"/>
<path d="M19.3043 8.18042H42.3536C46.3877 8.18042 49.658 11.4988 49.658 15.5922V26.2431C49.658 30.3365 46.3877 33.6549 42.3536 33.6549H19.3043C15.2703 33.6549 12 30.3365 12 26.2431V15.5922C12 11.4988 15.2703 8.18042 19.3043 8.18042Z" fill="#EA6F7D"/>
<path d="M16.7613 42L30.6125 33.6549H18.7288L16.7613 42Z" fill="#EA6F7D"/>
<path d="M12.912 55.488C10.928 55.248 9.408 55.128 8.352 55.128C7.296 55.128 6.584 55.272 6.216 55.56C5.496 56.136 5.136 57.88 5.136 60.792C5.136 62.12 5.248 63.208 5.472 64.056C5.712 64.904 6 65.456 6.336 65.712C6.688 65.968 7.2 66.096 7.872 66.096C8.56 66.096 9.312 65.992 10.128 65.784C10.944 65.56 11.872 65.24 12.912 64.824L13.992 67.656C13.8 67.784 13.528 67.944 13.176 68.136C12.824 68.312 12.128 68.552 11.088 68.856C10.048 69.16 9.024 69.312 8.016 69.312C5.872 69.312 4.2 68.624 3 67.248C1.8 65.872 1.2 63.696 1.2 60.72C1.2 57.904 1.648 55.8 2.544 54.408C2.96 53.752 3.48 53.232 4.104 52.848C4.744 52.448 5.4 52.176 6.072 52.032C6.76 51.888 7.48 51.816 8.232 51.816C8.984 51.816 9.864 51.88 10.872 52.008C11.896 52.12 12.712 52.256 13.32 52.416L12.912 55.488ZM16.8279 69V52.128H20.5959L20.5239 58.824H26.0919L26.0199 52.128H29.7879V69H26.0199L26.0919 62.04H20.5239L20.5959 69H16.8279ZM35.3333 69H31.5172L36.3413 52.128H40.8533L45.6773 69H41.8613L40.9013 65.256H36.2933L35.3333 69ZM40.1813 62.088L38.6693 55.584H38.5253L37.0133 62.088H40.1813ZM44.6863 52.128H57.8143V55.392L53.0143 55.32L53.0863 69H49.3183L49.3903 55.32L44.6863 55.392V52.128Z" fill="#1E005D"/>
<path d="M63.1813 69H59.4613V54.888H63.1813V69ZM63.4213 53.232H59.2213V50.736H63.4213V53.232ZM67.7711 56.472C68.7311 55.208 70.3311 54.576 72.5711 54.576C74.8111 54.576 76.3951 55.2 77.3231 56.448C78.2671 57.696 78.7391 59.528 78.7391 61.944C78.7391 64.36 78.2671 66.192 77.3231 67.44C76.3951 68.688 74.8111 69.312 72.5711 69.312C70.3311 69.312 68.7311 68.688 67.7711 67.44C66.8271 66.176 66.3551 64.344 66.3551 61.944C66.3551 59.544 66.8271 57.72 67.7711 56.472ZM74.9471 61.944C74.9471 60.12 74.7791 58.912 74.4431 58.32C74.1231 57.712 73.4911 57.408 72.5471 57.408C71.6191 57.408 70.9871 57.712 70.6511 58.32C70.3151 58.928 70.1471 60.136 70.1471 61.944C70.1471 63.752 70.3151 64.96 70.6511 65.568C70.9871 66.176 71.6191 66.48 72.5471 66.48C73.4911 66.48 74.1231 66.184 74.4431 65.592C74.7791 64.984 74.9471 63.768 74.9471 61.944Z" fill="#EA6F7D"/>
</svg>
